<?xml version="1.0" standalone="no"?>
<!DOCTYPE svg PUBLIC "-//W3C//DTD SVG 20010904//EN"
 "http://www.w3.org/TR/2001/REC-SVG-20010904/DTD/svg10.dtd">
<svg version="1.0" xmlns="http://www.w3.org/2000/svg"
 width="433.000000pt" height="162.000000pt" viewBox="0 0 433.000000 162.000000"
 preserveAspectRatio="xMidYMid meet">

<g transform="translate(0.000000,162.000000) scale(0.100000,-0.100000)"
fill="#ffffff" stroke="none">
<path d="M4115 1539 c-19 -9 -19 -9 2 -5 19 3 21 1 13 -13 -10 -20 -2 -64 11
-56 4 3 6 14 4 25 -2 11 1 19 8 17 7 -1 12 7 12 18 0 22 -21 28 -50 14z"/>
<path d="M4051 1524 c-12 -14 -11 -16 4 -12 10 1 20 9 23 16 5 17 -10 15 -27
-4z"/>
<path d="M3966 1515 c4 -8 11 -15 16 -15 6 0 5 6 -2 15 -7 8 -14 15 -16 15 -2
0 -1 -7 2 -15z"/>
<path d="M3880 1510 c-9 -6 -10 -10 -3 -10 6 0 15 5 18 10 8 12 4 12 -15 0z"/>
<path d="M3916 1511 c-4 -5 3 -7 14 -4 23 6 26 13 6 13 -8 0 -17 -4 -20 -9z"/>
<path d="M3822 1495 c-14 -17 -37 -21 -27 -5 7 12 -35 13 -53 1 -11 -7 -11
-15 2 -45 17 -41 19 -42 36 -21 11 13 10 14 -6 8 -16 -6 -17 -5 -4 9 13 14 17
14 32 1 15 -13 16 -13 12 9 -2 12 -2 17 2 10 3 -6 10 -10 15 -6 5 3 12 -2 15
-10 3 -9 13 -16 21 -16 18 0 14 51 -5 58 -8 2 -10 -2 -5 -15 6 -16 5 -16 -10
-4 -13 10 -15 17 -6 27 15 19 -3 17 -19 -1z"/>
<path d="M3690 1490 c-8 -5 -11 -12 -7 -16 4 -4 13 -2 19 4 15 15 7 24 -12 12z"/>
<path d="M4014 1485 c-3 -8 -3 -19 1 -24 4 -7 -1 -8 -12 -4 -13 4 -15 3 -7 -6
16 -18 42 -3 42 25 0 26 -15 33 -24 9z"/>
<path d="M3913 1483 c-18 -7 -16 -23 2 -23 8 0 15 7 15 15 0 8 -1 15 -2 14 -2
0 -9 -3 -15 -6z"/>
<path d="M3957 1483 c-4 -3 -7 -11 -7 -17 0 -6 5 -5 12 2 6 6 9 14 7 17 -3 3
-9 2 -12 -2z"/>
<path d="M4095 1480 c-4 -6 -11 -8 -16 -5 -14 9 -11 -1 5 -14 12 -10 17 -8 26
8 11 21 -3 31 -15 11z"/>
<path d="M3603 1467 c-4 -6 0 -8 10 -4 9 3 19 2 22 -3 9 -15 25 -12 25 4 0 16
-47 19 -57 3z"/>
<path d="M3545 1433 c-21 -32 -23 -39 -9 -41 27 -6 63 8 74 29 10 19 10 19
-12 7 -13 -7 -26 -17 -30 -23 -5 -6 -12 -5 -20 3 -7 7 -8 12 -2 12 6 0 16 11
22 25 17 36 7 31 -23 -12z"/>
<path d="M3696 1454 c-11 -7 -16 -20 -13 -29 9 -23 27 -18 27 8 1 21 1 22 15
3 8 -11 15 -16 15 -10 0 5 -6 16 -13 25 -11 14 -15 15 -31 3z"/>
<path d="M3392 1415 c3 -49 12 -58 22 -22 6 21 7 22 21 3 19 -25 30 -15 16 13
-10 18 -8 21 14 27 38 9 20 24 -30 24 l-45 0 2 -45z"/>
<path d="M3509 1443 c-13 -15 -12 -15 9 -4 23 12 28 21 13 21 -5 0 -15 -7 -22
-17z"/>
<path d="M3240 1436 c0 -7 91 -56 104 -56 6 0 2 6 -9 12 -11 6 -25 18 -31 27
-10 13 -64 28 -64 17z"/>
<path d="M3340 1430 c0 -5 5 -10 11 -10 5 0 7 5 4 10 -3 6 -8 10 -11 10 -2 0
-4 -4 -4 -10z"/>
<path d="M3145 1420 c3 -5 8 -10 11 -10 2 0 4 5 4 10 0 6 -5 10 -11 10 -5 0
-7 -4 -4 -10z"/>
<path d="M3183 1416 c5 -11 3 -22 -4 -26 -7 -5 -4 -9 8 -12 24 -6 28 25 5 44
-14 11 -15 11 -9 -6z"/>
<path d="M3625 1419 c-12 -19 5 -23 22 -6 16 16 16 17 1 17 -9 0 -20 -5 -23
-11z"/>
<path d="M3120 1400 c22 -19 22 -50 0 -50 -6 0 -8 5 -4 12 5 8 2 9 -10 5 -11
-4 -24 2 -38 18 -12 14 -26 25 -31 25 -6 0 -2 -9 8 -20 14 -16 16 -23 7 -32
-17 -17 -15 -27 7 -25 11 0 18 4 15 8 -2 4 0 10 6 14 5 3 10 -1 10 -10 0 -12
5 -15 16 -11 9 3 27 6 40 6 15 0 24 6 24 15 0 8 -4 15 -10 15 -5 0 -10 5 -10
11 0 13 -29 38 -44 39 -5 0 1 -9 14 -20z"/>
<path d="M3496 1403 c-6 -14 -5 -15 5 -6 7 7 10 15 7 18 -3 3 -9 -2 -12 -12z"/>
<path d="M3223 1382 c2 -24 6 -29 27 -27 66 5 66 5 34 19 -18 8 -35 19 -38 25
-13 20 -25 11 -23 -17z m42 -20 c-3 -3 -11 0 -18 7 -9 10 -8 11 6 5 10 -3 15
-9 12 -12z"/>
<path d="M2845 1390 c-28 -7 -17 -15 14 -10 13 2 13 -1 0 -17 -20 -26 -43 -42
-51 -37 -4 3 -5 -2 -2 -10 8 -20 13 -20 36 1 12 10 18 12 18 4 0 -7 4 -10 9
-7 5 3 7 15 4 26 -3 12 -2 20 3 19 19 -3 54 14 54 26 0 13 -39 16 -85 5z"/>
<path d="M2953 1378 c-18 -13 -33 -29 -33 -36 0 -7 -4 -11 -9 -8 -5 3 -11 -1
-15 -9 -4 -10 1 -15 14 -15 11 0 20 4 20 8 0 5 9 19 20 32 11 13 20 20 20 15
0 -4 6 -3 13 4 10 8 17 7 25 -1 15 -15 26 -4 19 17 -9 21 -37 19 -74 -7z"/>
<path d="M2765 1355 c-19 -20 -33 -28 -38 -21 -4 6 -5 0 -4 -14 2 -14 9 -25
15 -24 30 3 34 5 28 19 -3 8 5 25 19 39 14 14 21 27 17 29 -4 2 -20 -11 -37
-28z"/>
<path d="M2645 1360 c-8 -13 5 -13 25 0 13 8 13 10 -2 10 -9 0 -20 -4 -23 -10z"/>
<path d="M2552 1344 c-12 -8 -22 -10 -22 -5 0 27 -79 1 -102 -33 -5 -8 -8 -7
-8 1 0 7 8 17 18 22 15 9 15 10 -5 11 -15 0 -23 -6 -23 -17 0 -13 -3 -14 -12
-5 -19 19 -56 14 -68 -8 -8 -14 -8 -20 0 -20 6 0 8 -4 5 -10 -3 -5 -15 -10
-26 -10 -16 0 -18 3 -9 19 14 28 12 36 -5 21 -12 -10 -15 -10 -15 0 0 9 -8 7
-26 -5 -19 -12 -29 -14 -37 -6 -15 15 -82 14 -95 -2 -6 -7 -9 -22 -6 -33 4
-15 -1 -19 -25 -21 -16 -1 -35 5 -42 13 -10 13 -8 14 15 10 18 -3 26 -1 23 7
-2 7 -28 12 -63 13 -65 3 -66 6 8 -48 l23 -17 -22 2 c-13 1 -23 5 -23 10 0 4
-4 6 -9 3 -5 -3 -14 1 -21 9 -20 24 -31 18 -28 -16 2 -31 3 -31 48 -25 25 4
78 9 118 13 49 4 75 10 79 20 4 10 9 11 18 3 10 -9 16 -7 24 8 6 11 7 23 3 27
-4 5 -1 5 6 1 9 -5 9 -12 1 -28 -11 -20 -9 -21 22 -14 19 4 50 9 69 12 20 3
42 14 52 27 16 20 16 20 15 2 -2 -15 3 -19 18 -17 11 1 37 3 59 3 34 0 37 3
33 21 -5 16 -3 18 6 9 15 -15 30 -14 22 2 -4 6 0 4 8 -5 14 -17 48 -24 59 -12
4 3 3 18 -2 34 -5 18 -4 32 3 39 8 8 8 11 0 11 -17 0 -35 -28 -27 -42 6 -10 3
-9 -9 1 -13 10 -15 17 -6 27 15 18 9 18 -19 -2z m-184 -42 c10 -7 8 -12 -5
-25 -17 -14 -18 -14 -19 9 -2 25 3 29 24 16z m92 -22 c0 -5 -4 -10 -10 -10 -5
0 -10 5 -10 10 0 6 5 10 10 10 6 0 10 -4 10 -10z m-235 -10 c3 -6 -1 -7 -9 -4
-18 7 -21 14 -7 14 6 0 13 -4 16 -10z m-55 -30 c0 -5 -4 -10 -10 -10 -5 0 -10
5 -10 10 0 6 5 10 10 10 6 0 10 -4 10 -10z"/>
<path d="M2700 1349 c0 -5 5 -7 10 -4 6 3 10 8 10 11 0 2 -4 4 -10 4 -5 0 -10
-5 -10 -11z"/>
<path d="M3010 1329 c0 -5 5 -7 10 -4 6 3 10 8 10 11 0 2 -4 4 -10 4 -5 0 -10
-5 -10 -11z"/>
<path d="M2625 1322 c-9 -9 6 -22 25 -22 12 0 17 5 14 13 -5 13 -29 19 -39 9z"/>
<path d="M2680 1315 c0 -8 2 -15 4 -15 2 0 6 7 10 15 3 8 1 15 -4 15 -6 0 -10
-7 -10 -15z"/>
<path d="M2220 1310 c0 -5 5 -10 11 -10 5 0 7 5 4 10 -3 6 -8 10 -11 10 -2 0
-4 -4 -4 -10z"/>
<path d="M1912 1265 c3 -11 -1 -26 -9 -34 -12 -10 -17 -8 -34 13 -20 25 -59
36 -59 17 0 -5 8 -7 18 -5 10 3 22 -4 30 -16 13 -21 9 -40 -9 -40 -6 0 -7 5
-3 12 5 8 2 9 -9 5 -11 -4 -27 3 -44 19 -14 13 -29 21 -32 16 -3 -4 -16 -7
-29 -6 -14 1 -40 -15 -69 -42 -36 -34 -42 -44 -27 -44 10 0 28 13 38 29 17 24
25 28 54 25 19 -3 31 0 28 5 -9 14 8 21 24 11 12 -7 12 -12 2 -22 -6 -6 -12
-19 -12 -27 0 -10 7 -8 25 9 22 21 25 21 25 5 0 -14 6 -16 31 -11 17 3 35 6
39 6 4 0 10 10 13 21 4 14 11 20 21 16 11 -4 14 0 11 15 -3 12 -10 26 -16 32
-9 8 -10 6 -7 -9z"/>
<path d="M1640 1242 c0 -4 -21 -6 -47 -3 -27 2 -45 0 -41 -4 4 -5 3 -14 -3
-22 -16 -18 -1 -17 17 2 17 16 39 21 29 6 -10 -17 16 -24 41 -10 24 12 33 39
14 39 -5 0 -10 -3 -10 -8z"/>
<path d="M1512 1215 c-7 -8 -9 -15 -4 -15 5 0 15 7 22 15 16 19 -1 19 -18 0z"/>
<path d="M1385 1210 c-3 -6 1 -7 9 -4 18 7 21 14 7 14 -6 0 -13 -4 -16 -10z"/>
<path d="M1426 1207 c3 -10 9 -15 12 -12 3 3 0 11 -7 18 -10 9 -11 8 -5 -6z"/>
<path d="M1327 1199 c-13 -7 -16 -17 -11 -32 6 -20 5 -20 -10 -8 -9 8 -15 20
-12 28 4 9 -3 8 -21 -4 -15 -10 -24 -12 -19 -5 10 17 -18 26 -43 12 -14 -7
-21 -21 -21 -41 0 -18 4 -28 10 -24 6 3 10 1 10 -4 0 -13 27 -14 35 -2 3 5 0
13 -6 17 -8 5 -9 3 -4 -6 6 -9 4 -11 -4 -5 -9 5 -10 10 -2 18 7 7 15 6 27 -4
16 -12 17 -12 11 4 -3 9 -4 17 0 17 3 0 12 -8 20 -17 10 -12 12 -13 8 -3 -4
10 -2 9 8 -2 8 -10 19 -18 26 -18 15 0 14 43 -1 58 -9 9 -8 12 5 12 9 0 17 5
17 10 0 12 0 12 -23 -1z"/>
<path d="M3810 1205 c0 -2 9 -9 20 -15 16 -9 18 -8 14 5 -5 13 -34 22 -34 10z"/>
<path d="M3878 1202 c-25 -5 -23 -14 17 -52 45 -44 69 -115 69 -210 0 -56 -4
-83 -18 -107 -69 -115 -214 -30 -233 138 -3 30 -11 60 -17 68 -8 11 -8 13 2 7
8 -5 12 0 12 18 0 39 18 76 52 108 l32 30 -30 -4 c-16 -2 -28 -8 -27 -15 2 -7
-3 -10 -11 -7 -14 6 -30 -22 -20 -37 3 -5 -2 -9 -10 -9 -9 0 -16 5 -16 11 0 5
-5 7 -11 4 -6 -4 -8 -9 -5 -12 2 -2 -4 -13 -15 -24 -24 -24 -24 -37 -2 -35 12
1 17 -7 18 -31 0 -18 -3 -33 -7 -33 -4 0 -8 7 -8 15 0 12 -5 10 -21 -6 -39
-39 -4 -157 65 -217 112 -98 305 -50 349 88 18 56 22 105 9 96 -5 -3 -9 1 -9
9 0 8 4 12 9 9 10 -6 -2 53 -16 81 -6 11 -19 21 -29 23 -20 3 -22 -9 -4 -27
10 -10 8 -11 -7 -5 -16 6 -18 4 -13 -9 9 -24 -10 -21 -23 2 -14 26 -13 31 5
25 8 -4 15 -1 15 6 0 8 -8 10 -21 7 -18 -5 -20 -2 -15 16 3 12 6 27 6 32 0 6
4 3 10 -5 5 -8 12 -12 15 -9 3 4 -4 17 -15 30 -18 22 -21 23 -30 7 -13 -21
-35 -23 -46 -6 -5 8 -2 9 9 5 9 -3 18 -3 21 1 7 12 -18 28 -36 24z m-185 -96
c3 -8 3 -17 0 -20 -9 -9 -34 15 -27 25 8 13 21 11 27 -5z m347 -46 c0 -5 -2
-10 -4 -10 -3 0 -8 5 -11 10 -3 6 -1 10 4 10 6 0 11 -4 11 -10z m-47 -65 c-3
-9 -8 -14 -10 -11 -3 3 -2 9 2 15 9 16 15 13 8 -4z"/>
<path d="M1474 1185 c-6 -13 -8 -14 -15 -3 -5 8 -9 9 -9 2 0 -7 11 -19 25 -28
24 -16 25 -16 25 8 0 30 -18 44 -26 21z"/>
<path d="M1557 1180 c-19 -11 -25 -20 -17 -25 6 -4 21 1 32 12 12 10 18 12 14
6 -4 -7 -3 -13 2 -13 12 0 23 26 15 34 -9 8 -14 7 -46 -14z"/>
<path d="M1140 1175 c0 -8 3 -15 6 -15 3 0 12 7 20 15 14 13 13 15 -5 15 -12
0 -21 -6 -21 -15z"/>
<path d="M1065 1169 c-11 -17 0 -20 21 -4 17 13 17 14 2 15 -9 0 -20 -5 -23
-11z"/>
<path d="M1083 1147 c-16 -18 -34 -32 -40 -30 -6 2 -14 -1 -18 -6 -3 -6 -11
-11 -16 -11 -6 0 -1 12 10 26 32 41 24 54 -9 15 -16 -19 -27 -38 -24 -43 3 -4
0 -8 -5 -8 -6 0 -11 9 -11 21 0 11 4 18 8 15 4 -2 13 4 20 15 14 23 0 25 -22
4 -18 -19 -30 -19 -23 -1 4 10 -6 13 -46 10 -58 -4 -65 -11 -59 -59 4 -33 22
-41 22 -9 0 19 17 18 29 -3 5 -10 13 -15 16 -11 4 4 3 13 -1 20 -16 25 -12 35
14 34 24 -1 46 -26 23 -26 -6 0 -11 5 -11 10 0 6 -4 10 -10 10 -5 0 -10 -4
-10 -9 0 -18 69 -33 113 -25 23 4 47 7 54 6 7 -2 17 7 23 18 12 23 8 25 -21 9
-19 -9 -19 -9 -10 10 7 12 17 18 26 15 10 -4 15 0 15 15 0 28 -3 27 -37 -12z"/>
<path d="M1365 1170 c-19 -7 -19 -8 -2 -15 19 -8 31 -2 26 13 -2 5 -13 6 -24
2z"/>
<path d="M1415 1169 c-4 -6 -5 -12 -2 -15 2 -3 7 2 10 11 7 17 1 20 -8 4z"/>
<path d="M1152 1150 c-21 -20 -31 -47 -13 -36 5 4 11 0 14 -6 5 -14 30 39 25
54 -2 5 -13 0 -26 -12z"/>
<path d="M1458 1143 c7 -3 16 -2 19 1 4 3 -2 6 -13 5 -11 0 -14 -3 -6 -6z"/>
<path d="M725 1130 c-14 -5 -15 -8 -3 -17 17 -14 79 -45 82 -41 1 2 -13 17
-30 34 -21 19 -38 28 -49 24z"/>
<path d="M3253 1133 c-7 -2 -13 -9 -13 -15 0 -7 5 -6 14 1 11 9 15 9 19 -1 3
-10 9 -9 23 5 18 16 17 17 -6 16 -14 0 -31 -3 -37 -6z"/>
<path d="M3350 1132 c0 -6 -7 -9 -15 -6 -8 4 -15 1 -15 -4 0 -6 11 -9 24 -6
16 3 26 -2 30 -14 3 -9 17 -32 30 -50 31 -41 50 -128 44 -200 -4 -48 -10 -60
-41 -89 -29 -26 -45 -33 -77 -33 -33 0 -42 4 -50 23 -9 24 -40 264 -40 316 0
22 -4 30 -12 25 -8 -5 -9 0 -6 14 5 18 2 22 -16 22 -12 0 -27 -5 -34 -12 -9
-9 -12 -9 -12 1 0 7 -5 9 -12 5 -7 -4 -24 -8 -38 -8 -32 -1 -42 -20 -13 -24
12 -2 26 -9 31 -15 12 -14 53 -334 45 -353 -3 -8 -16 -17 -29 -20 -24 -6 -31
-19 -16 -27 4 -2 69 4 145 14 153 20 206 41 243 96 39 58 42 145 8 220 -19 42
-31 49 -55 27 -18 -17 -19 -16 -19 10 0 22 -3 26 -19 21 -21 -6 -38 10 -22 20
15 9 1 35 -18 35 -9 0 -22 5 -29 12 -9 9 -12 9 -12 0z"/>
<path d="M545 1110 c-8 -13 3 -30 18 -29 9 0 9 2 0 6 -7 2 -13 9 -13 14 0 4 7
5 17 2 11 -4 14 -3 9 5 -9 15 -23 15 -31 2z"/>
<path d="M598 1113 c7 -3 16 -2 19 1 4 3 -2 6 -13 5 -11 0 -14 -3 -6 -6z"/>
<path d="M642 1110 c3 -8 -2 -20 -11 -26 -12 -9 -18 -8 -27 5 -7 9 -16 12 -20
8 -5 -4 -2 -12 6 -17 13 -8 12 -12 -4 -27 -18 -17 -19 -17 -12 1 4 13 2 17 -8
13 -15 -6 -59 20 -52 32 3 4 -4 8 -15 8 -11 1 -17 -3 -13 -8 3 -6 -5 -8 -19
-5 -19 3 -35 -6 -67 -35 -23 -21 -46 -39 -51 -39 -17 0 -9 20 16 36 38 25 30
34 -25 30 -36 -2 -54 -8 -64 -22 -19 -25 -11 -32 12 -11 21 19 32 22 32 8 0
-5 -16 -16 -36 -26 -34 -16 -35 -18 -20 -34 16 -15 18 -15 32 3 8 11 14 15 14
10 0 -19 68 -15 82 5 20 28 65 54 73 42 9 -16 25 -13 25 4 0 8 7 15 16 15 10
0 14 -5 10 -15 -3 -8 -9 -22 -12 -30 -5 -12 -1 -14 17 -11 13 3 41 5 62 5 31
1 40 5 44 22 4 14 12 19 24 16 14 -4 18 0 16 14 -2 11 -9 25 -16 32 -11 10
-13 9 -9 -3z m-92 -64 c0 -3 -4 -8 -10 -11 -5 -3 -10 -1 -10 4 0 6 5 11 10 11
6 0 10 -2 10 -4z"/>
<path d="M3430 1111 c0 -5 5 -13 10 -16 6 -3 10 -2 10 4 0 5 -4 13 -10 16 -5
3 -10 2 -10 -4z"/>
<path d="M680 1077 c0 -30 3 -34 20 -30 11 3 17 10 13 17 -3 6 0 6 8 -1 16
-15 39 -17 39 -3 0 6 -6 10 -14 10 -7 0 -25 9 -40 21 l-26 20 0 -34z"/>
<path d="M2793 1073 c-30 -15 -37 -26 -36 -60 1 -7 -4 -13 -9 -13 -6 0 -8 -11
-6 -25 3 -13 2 -22 -2 -20 -4 2 -24 -55 -45 -128 -41 -143 -57 -177 -86 -184
-25 -7 -25 -33 0 -28 10 2 40 4 67 6 27 1 55 4 62 7 18 6 15 22 -5 22 -38 0
-42 12 -28 74 8 32 18 63 22 67 5 5 41 11 81 15 l72 7 25 -54 c31 -67 31 -77
0 -85 -14 -3 -25 -11 -25 -18 0 -9 26 -9 107 2 59 7 109 15 111 17 9 9 -11 25
-32 25 -13 0 -28 6 -33 13 -6 6 -52 94 -103 195 -50 100 -95 182 -98 181 -4 0
-22 -8 -39 -16z m31 -160 l35 -72 -47 -6 c-26 -4 -52 -7 -59 -8 -6 -1 -12 1
-13 6 -4 17 34 157 41 155 5 -2 24 -35 43 -75z"/>
<path d="M245 1070 c3 -5 0 -10 -8 -10 -8 0 -20 -7 -27 -15 -7 -8 -16 -12 -21
-10 -4 3 -13 -4 -19 -15 -7 -13 -7 -20 0 -20 5 0 10 5 10 12 0 6 3 8 7 4 5 -4
-1 -14 -11 -22 -19 -13 -19 -14 6 -14 30 0 62 26 54 45 -2 6 4 18 14 25 19 14
18 30 -1 30 -6 0 -7 -4 -4 -10z"/>
<path d="M123 1062 c-30 -3 -33 -6 -33 -38 0 -33 2 -35 28 -32 22 2 62 42 62
62 0 8 -26 11 -57 8z m27 -19 c0 -5 -4 -14 -9 -22 -8 -12 -12 -12 -25 2 -12
11 -13 17 -3 20 19 8 37 8 37 0z"/>
<path d="M465 1030 c-3 -5 1 -10 10 -10 9 0 13 5 10 10 -3 6 -8 10 -10 10 -2
0 -7 -4 -10 -10z"/>
<path d="M2320 1019 c0 -3 -17 -6 -37 -5 -28 1 -37 -3 -35 -13 3 -12 0 -12
-12 -1 -13 10 -19 10 -33 -1 -11 -10 -14 -10 -9 -1 5 8 0 12 -13 12 -12 0 -21
-7 -21 -15 0 -8 6 -12 13 -9 7 2 21 -2 31 -9 16 -11 23 -42 37 -153 25 -194
25 -212 -6 -226 -26 -12 -29 -34 -4 -31 8 0 85 9 172 19 l157 18 0 58 c0 65
-13 74 -34 24 -17 -41 -47 -62 -102 -71 -28 -4 -44 -2 -51 7 -6 7 -18 68 -26
136 -12 95 -19 126 -33 137 -17 12 -17 14 -1 29 12 13 14 22 7 42 -6 14 -6 23
-1 20 5 -3 14 1 21 10 7 8 19 13 27 10 7 -3 13 1 13 9 0 11 -9 15 -30 13 -16
-1 -30 -5 -30 -9z"/>
<path d="M1979 973 c-13 -16 -12 -17 4 -4 15 12 17 11 17 -3 0 -9 7 -16 15
-16 8 0 22 -14 30 -31 16 -30 35 -35 43 -9 3 9 -1 11 -12 7 -12 -5 -15 -3 -9
6 15 24 12 47 -6 57 -30 15 -67 12 -82 -7z m71 3 c0 -3 -4 -8 -10 -11 -5 -3
-10 -1 -10 4 0 6 5 11 10 11 6 0 10 -2 10 -4z"/>
<path d="M1905 960 c-10 -11 -13 -20 -7 -20 6 0 15 6 19 14 4 7 15 16 23 19
13 5 13 6 -1 6 -9 1 -24 -8 -34 -19z"/>
<path d="M1798 956 c-15 -8 -38 -17 -50 -19 -20 -4 -19 -4 5 -6 15 0 30 -8 33
-16 4 -8 10 -12 15 -9 5 3 7 -8 5 -23 -2 -15 -1 -20 1 -11 3 11 10 15 21 11
13 -5 11 0 -6 19 -15 17 -20 28 -13 33 6 3 11 1 11 -6 0 -8 4 -8 15 1 16 13
21 35 6 26 -5 -4 -11 -2 -13 4 -2 6 -14 4 -30 -4z"/>
<path d="M1667 937 c8 -12 -17 -36 -32 -31 -7 3 -16 1 -20 -5 -3 -6 1 -11 9
-11 9 0 16 -4 16 -10 0 -20 18 -9 24 14 4 15 15 26 28 28 33 5 33 25 -1 24
-16 -1 -27 -5 -24 -9z"/>
<path d="M1850 934 c-11 -13 -9 -20 18 -47 35 -34 41 -25 21 32 -12 35 -21 38
-39 15z"/>
<path d="M1583 933 c-20 -7 -15 -23 7 -23 11 0 20 4 20 9 0 13 -12 19 -27 14z"/>
<path d="M1620 936 c0 -2 7 -9 15 -16 12 -10 15 -10 15 4 0 9 -7 16 -15 16 -8
0 -15 -2 -15 -4z"/>
<path d="M1392 879 c-11 -23 -18 -48 -15 -56 5 -12 1 -14 -18 -8 -22 6 -22 5
6 -18 38 -32 28 -45 -11 -15 l-28 23 31 -55 c17 -30 56 -102 88 -160 64 -118
80 -139 95 -124 5 5 28 81 50 169 23 88 45 173 50 189 8 23 6 32 -8 42 -15 11
-20 2 -48 -111 -45 -178 -39 -173 -90 -72 -32 63 -49 87 -59 83 -20 -7 -51 52
-36 67 6 6 11 19 11 29 0 9 9 22 20 28 25 14 26 30 1 30 -12 0 -26 -15 -39
-41z"/>
<path d="M1262 885 c-23 -12 -22 -13 13 -19 44 -9 51 -4 28 16 -15 12 -22 13
-41 3z"/>
<path d="M1340 890 c-8 -5 -12 -11 -9 -14 2 -3 11 -1 19 4 8 5 12 11 9 14 -2
3 -11 1 -19 -4z"/>
<path d="M1148 885 c-4 -4 -54 -13 -86 -14 -7 -1 -10 -6 -7 -11 4 -6 15 -8 25
-5 13 4 28 -7 54 -36 35 -42 53 -48 40 -15 -3 9 -12 16 -19 16 -8 0 -16 4 -19
9 -9 14 4 41 20 41 8 0 14 5 14 10 0 10 -13 14 -22 5z"/>
<path d="M976 848 c-4 -17 -8 -20 -14 -10 -7 10 -15 9 -41 -5 -26 -15 -33 -16
-40 -4 -5 8 -11 9 -15 3 -3 -5 1 -12 9 -16 8 -3 15 -13 15 -22 0 -10 5 -14 15
-10 9 3 15 0 15 -10 0 -8 -4 -12 -10 -9 -6 4 -10 -7 -9 -27 1 -20 3 -26 6 -14
7 26 25 44 41 38 16 -5 15 -22 -2 -22 -19 0 -27 -25 -13 -40 9 -10 9 -11 -2
-5 -11 6 -13 4 -7 -11 14 -34 18 -62 5 -34 -11 23 -12 23 -17 6 -2 -12 3 -25
14 -33 10 -7 12 -13 6 -13 -16 0 -15 -52 2 -75 11 -16 17 -17 29 -7 13 11 19
8 37 -18 18 -26 19 -32 7 -44 -12 -12 -18 -10 -41 16 -15 17 -28 29 -30 27 -2
-2 -6 -26 -10 -53 l-6 -49 43 7 c23 4 56 8 72 10 17 1 69 6 118 11 l87 7 0 59
c0 46 -3 59 -15 59 -9 0 -15 -9 -15 -21 0 -35 -51 -76 -103 -84 -54 -8 -77 4
-77 41 0 13 -3 24 -7 24 -5 0 -8 27 -9 59 l-1 59 42 6 c47 7 71 1 79 -20 11
-27 26 -14 26 24 0 75 -21 106 -39 58 -17 -43 -100 -49 -146 -11 l-30 25 28
-10 28 -10 -3 68 c-3 63 -2 67 20 70 26 4 29 17 6 26 -28 11 -42 6 -48 -16z
m22 -288 c7 -11 8 -20 2 -20 -5 0 -14 9 -20 20 -6 11 -7 20 -3 20 5 0 14 -9
21 -20z"/>
<path d="M895 850 c-3 -5 -1 -10 4 -10 6 0 11 5 11 10 0 6 -2 10 -4 10 -3 0
-8 -4 -11 -10z"/>
<path d="M830 834 c0 -8 5 -12 10 -9 6 3 10 10 10 16 0 5 -4 9 -10 9 -5 0 -10
-7 -10 -16z"/>
<path d="M1165 840 c3 -5 8 -10 11 -10 2 0 4 5 4 10 0 6 -5 10 -11 10 -5 0 -7
-4 -4 -10z"/>
<path d="M1316 842 c-2 -4 -1 -14 5 -22 7 -12 9 -10 9 8 0 23 -5 28 -14 14z"/>
<path d="M1810 818 c1 -13 7 -72 14 -132 8 -60 12 -115 9 -123 -3 -7 -16 -16
-30 -19 -30 -8 -24 -30 8 -27 13 1 91 9 172 19 165 19 168 21 165 99 -2 46
-23 46 -38 0 -15 -45 -41 -62 -107 -71 -63 -8 -69 0 -79 109 -6 65 -4 77 8 77
9 0 29 3 46 6 25 5 36 1 56 -20 13 -15 26 -23 29 -19 2 4 2 34 0 66 -4 39 -10
57 -19 57 -8 0 -14 -6 -14 -14 0 -23 -41 -46 -82 -46 -33 0 -37 3 -40 28 -3
28 -17 34 -55 20 -14 -4 -23 -4 -23 2 0 6 -4 10 -10 10 -5 0 -10 -10 -10 -22z"/>
<path d="M530 818 c-47 -4 -92 -11 -100 -15 -8 -3 -21 -5 -29 -4 -22 4 -61 -8
-61 -19 0 -6 11 -10 25 -10 27 0 45 -25 45 -63 0 -13 3 -26 6 -29 3 -4 8 -37
10 -75 3 -37 8 -93 12 -123 l7 -55 35 3 c29 2 37 -2 47 -24 l12 -26 -25 17
c-14 9 -28 14 -32 11 -3 -3 0 -6 6 -6 7 0 12 -5 12 -12 0 -6 -7 -4 -18 5 -24
22 -34 21 -50 -3 -7 -11 -19 -20 -27 -20 -8 0 -15 -4 -15 -10 0 -13 87 -13 92
0 4 12 47 15 71 5 20 -8 24 14 6 32 -12 12 -39 152 -30 157 14 9 75 17 68 10
-9 -10 32 -54 47 -49 6 2 25 -13 41 -34 21 -28 37 -38 54 -37 21 1 25 -4 25
-29 1 -21 7 -31 20 -33 19 -4 19 -3 3 22 -10 14 -13 26 -8 26 16 0 7 26 -23
64 -24 32 -30 35 -44 24 -10 -8 -13 -8 -9 -1 4 6 4 13 0 16 -5 2 -2 2 5 1 18
-5 14 8 -13 39 -14 16 -30 25 -37 21 -7 -4 -8 -3 -4 4 4 7 16 12 27 12 25 0
59 55 59 97 0 46 -17 77 -53 95 -47 24 -63 26 -157 16z m85 -48 c21 -23 34
-84 25 -120 -6 -26 -50 -56 -90 -62 -21 -3 -25 2 -33 37 -4 22 -7 57 -7 77 0
20 -4 39 -10 43 -8 5 -6 13 6 26 23 26 85 25 109 -1z m-135 -237 c0 -2 -5 -14
-11 -25 -10 -18 -9 -20 5 -15 9 4 16 2 16 -3 0 -5 6 -10 13 -13 6 -2 4 -3 -7
-1 -11 2 -20 -5 -23 -17 -11 -39 -24 -17 -21 35 2 38 7 52 16 49 6 -3 12 -7
12 -10z"/>
<path d="M1417 799 c7 -7 15 -10 18 -7 3 3 -2 9 -12 12 -14 6 -15 5 -6 -5z"/>
<path d="M3972 592 c-222 -28 -291 -40 -288 -49 3 -7 1 -13 -4 -13 -6 0 -10 5
-10 10 0 6 -18 10 -41 10 -28 0 -39 -4 -36 -12 2 -7 16 -12 29 -11 18 1 29 -6
37 -23 12 -28 9 -30 -14 -7 -14 13 -18 14 -25 2 -7 -10 -14 -8 -32 14 -23 27
-58 37 -58 16 0 -5 -5 -7 -11 -3 -6 3 -3 -8 5 -25 23 -43 -3 -43 -28 0 -16 27
-22 30 -50 25 -17 -3 -51 -8 -76 -10 -25 -3 -65 -7 -90 -11 -25 -3 -58 -6 -73
-6 -26 0 -27 -2 -15 -16 11 -15 11 -16 -7 -8 -34 15 -235 2 -235 -15 0 -4 -9
-6 -20 -3 -33 9 -131 -7 -128 -20 2 -7 -7 -22 -20 -35 -26 -26 -28 -42 -4 -42
9 0 85 9 167 19 83 11 181 23 218 27 68 6 68 7 63 33 l-6 26 18 -22 c16 -18
27 -21 68 -17 27 3 61 6 77 6 15 1 27 5 27 10 0 5 5 6 11 3 5 -4 49 -1 97 6
48 7 98 12 112 12 27 -1 60 22 60 43 0 7 4 15 9 18 5 3 8 -2 7 -12 0 -10 6
-16 17 -16 9 1 17 -3 17 -8 0 -7 23 -8 63 -4 78 8 377 44 435 51 l42 6 0 45
c0 24 -3 44 -7 43 -5 -1 -140 -17 -301 -37z m-501 -120 c11 -29 5 -28 -16 4
-11 17 -12 25 -4 22 6 -2 16 -14 20 -26z m-167 -21 c9 -12 8 -12 -11 -2 -15 7
-20 17 -16 28 5 14 8 14 11 2 3 -7 10 -20 16 -28z m130 23 c9 -24 7 -28 -9
-14 -17 14 -20 30 -6 30 5 0 12 -7 15 -16z"/>
<path d="M970 515 c0 -5 5 -17 10 -25 5 -8 10 -10 10 -5 0 6 -5 17 -10 25 -5
8 -10 11 -10 5z"/>
<path d="M640 503 c0 -5 12 -20 26 -34 24 -21 26 -22 16 -3 -13 25 -42 50 -42
37z"/>
<path d="M3690 482 c0 -5 7 -9 15 -9 8 0 12 4 9 9 -3 4 -9 8 -15 8 -5 0 -9 -4
-9 -8z"/>
<path d="M2673 433 c-7 -2 -13 -12 -13 -21 -1 -15 -2 -15 -14 1 -19 25 -70 13
-63 -14 3 -12 0 -19 -10 -19 -10 0 -12 -6 -8 -21 5 -15 4 -19 -4 -15 -6 4 -11
23 -11 42 0 31 -3 35 -22 32 -13 -2 -22 -9 -20 -16 1 -6 -5 -12 -14 -12 -8 0
-12 5 -9 10 3 6 1 10 -4 10 -6 0 -11 -4 -11 -8 0 -5 -14 -6 -31 -4 -22 3 -30
1 -25 -7 4 -6 16 -11 27 -11 10 0 19 -4 19 -10 0 -5 -3 -9 -7 -9 -20 3 -24 -2
-13 -16 7 -8 8 -15 2 -15 -12 0 -38 30 -26 30 5 0 -5 10 -23 21 -20 13 -40 18
-53 14 -27 -9 -14 -28 15 -21 17 4 24 1 28 -13 7 -28 -50 -22 -73 7 -18 21
-50 30 -50 14 0 -5 -15 -8 -32 -7 -18 1 -62 -2 -98 -7 -36 -5 -87 -11 -115
-14 -27 -3 -54 -9 -60 -12 -5 -4 -19 -5 -30 -4 -17 2 -17 1 -5 -7 12 -9 9 -11
-12 -11 -16 0 -28 5 -28 10 0 6 -4 10 -10 10 -5 0 -7 -7 -4 -15 5 -11 2 -13
-10 -9 -9 3 -23 1 -31 -6 -13 -11 -14 -10 -9 4 5 12 0 16 -21 16 -22 0 -26 -3
-20 -17 5 -15 4 -16 -6 -6 -20 20 -49 16 -49 -7 0 -11 5 -20 11 -20 6 0 8 7 5
17 -4 10 -3 14 1 9 4 -4 8 -20 8 -34 0 -28 22 -39 53 -27 9 4 38 7 65 6 26 -2
47 2 47 7 0 5 11 7 24 5 21 -4 24 -2 19 18 -4 15 -3 20 5 15 7 -4 12 -14 12
-21 0 -11 10 -13 48 -9 26 3 54 8 62 11 8 2 38 6 65 8 28 2 68 7 90 10 22 4
52 8 67 8 15 1 30 5 33 9 4 4 20 4 36 1 19 -4 29 -1 29 6 0 8 8 10 20 6 12 -4
27 -2 35 5 8 7 16 7 19 1 3 -5 15 -7 27 -4 16 5 19 11 14 30 -4 16 -2 22 5 18
5 -3 10 -16 10 -27 0 -18 4 -20 38 -14 20 3 49 6 65 6 18 0 27 5 27 16 0 8 -4
12 -10 9 -5 -3 -10 -1 -10 4 0 6 6 11 14 11 8 0 16 7 18 17 2 11 14 17 41 18
41 1 43 -1 22 -29 -13 -17 -15 -18 -15 -3 0 9 -3 17 -7 17 -35 -1 -41 -50 -7
-50 25 0 69 53 61 74 -5 12 -70 19 -94 9z m-33 -34 c0 -6 -4 -7 -10 -4 -5 3
-10 11 -10 16 0 6 5 7 10 4 6 -3 10 -11 10 -16z m-386 -68 c-6 -6 -24 19 -24
34 1 6 7 1 15 -9 8 -11 12 -22 9 -25z m-54 -3 c0 -6 -6 -5 -15 2 -8 7 -15 14
-15 16 0 2 7 1 15 -2 8 -4 15 -11 15 -16z m-180 -9 c0 -11 -4 -18 -10 -14 -5
3 -7 12 -3 20 7 21 13 19 13 -6z m141 -6 c13 -16 12 -17 -3 -4 -17 13 -22 21
-14 21 2 0 10 -8 17 -17z m-261 -13 c0 -5 -4 -10 -10 -10 -5 0 -10 5 -10 10 0
6 5 10 10 10 6 0 10 -4 10 -10z"/>
<path d="M710 421 c0 -10 39 -31 44 -23 2 4 -7 12 -20 19 -13 6 -24 8 -24 4z"/>
<path d="M880 415 c0 -9 6 -12 15 -9 8 4 12 10 9 15 -8 14 -24 10 -24 -6z"/>
<path d="M820 404 c0 -14 3 -15 18 -3 9 7 19 15 21 16 2 2 -5 3 -17 3 -14 0
-22 -6 -22 -16z"/>
<path d="M585 380 c-3 -5 1 -10 9 -10 9 0 16 5 16 10 0 6 -4 10 -9 10 -6 0
-13 -4 -16 -10z"/>
<path d="M1680 310 c0 -5 5 -10 10 -10 6 0 10 5 10 10 0 6 -4 10 -10 10 -5 0
-10 -4 -10 -10z"/>
<path d="M1599 303 c-1 -2 -2 -8 -3 -15 -2 -18 -26 -21 -26 -3 0 9 -4 13 -10
10 -6 -4 -3 -16 8 -33 9 -14 15 -28 12 -31 -10 -10 79 -12 98 -2 11 6 22 20
25 31 3 11 1 18 -4 14 -5 -3 -9 0 -9 5 0 6 -7 11 -15 11 -8 0 -15 5 -15 10 0
9 -58 11 -61 3z m61 -51 c0 -9 -7 -6 -20 11 -11 14 -20 29 -20 33 0 4 9 -1 20
-11 11 -10 20 -25 20 -33z m-36 2 c10 -25 -1 -29 -14 -5 -6 12 -7 21 -1 21 5
0 12 -7 15 -16z"/>
<path d="M1435 279 c-4 -6 -5 -13 -2 -16 7 -7 27 6 27 18 0 12 -17 12 -25 -2z"/>
<path d="M1350 269 c0 -6 -7 -8 -17 -5 -20 8 -36 -14 -21 -31 8 -10 6 -13 -7
-13 -11 0 -15 -5 -11 -16 3 -8 2 -12 -4 -9 -6 3 -10 19 -10 36 0 27 -2 29 -40
29 -22 0 -40 -4 -40 -10 0 -5 -13 -7 -30 -3 -31 6 -44 -12 -16 -23 8 -3 12
-12 9 -20 -3 -9 2 -14 16 -14 12 0 21 -4 21 -10 0 -5 12 -10 26 -10 23 0 25 3
19 27 -3 15 -14 33 -23 41 -13 10 -14 12 -2 10 8 -2 22 -18 30 -36 13 -27 20
-31 50 -31 55 2 97 13 82 22 -9 6 -5 17 14 43 21 27 23 34 10 34 -9 0 -16 -7
-16 -15 0 -14 -10 -18 -27 -12 -5 1 -7 8 -5 15 2 6 0 12 -3 12 -3 0 -5 -5 -5
-11z"/>
<path d="M1526 244 c-9 -24 -7 -27 7 -15 8 6 17 8 20 4 4 -3 7 -2 7 4 0 18
-28 23 -34 7z"/>
<path d="M1720 240 c0 -5 5 -10 11 -10 5 0 7 5 4 10 -3 6 -8 10 -11 10 -2 0
-4 -4 -4 -10z"/>
<path d="M1053 226 c10 -8 26 -12 37 -9 12 3 20 -2 24 -15 4 -11 15 -22 26
-25 17 -4 18 -2 9 14 -5 10 -6 19 -2 19 26 2 -48 29 -77 29 -32 0 -33 -1 -17
-13z"/>
<path d="M1415 222 c3 -7 5 -16 5 -18 0 -2 7 -4 15 -4 8 0 15 9 15 19 0 14 -6
19 -20 18 -13 -1 -19 -6 -15 -15z"/>
<path d="M1467 233 c-4 -3 -7 -11 -7 -17 0 -6 5 -5 12 2 6 6 9 14 7 17 -3 3
-9 2 -12 -2z"/>
<path d="M965 220 c3 -5 8 -10 11 -10 2 0 4 5 4 10 0 6 -5 10 -11 10 -5 0 -7
-4 -4 -10z"/>
<path d="M986 214 c-4 -10 1 -25 10 -35 16 -18 16 -19 1 -19 -22 0 -68 40 -60
53 4 6 -7 7 -28 3 -19 -4 -46 -8 -60 -8 -22 -1 -25 -5 -22 -27 3 -26 3 -26 -8
2 -14 36 -39 32 -60 -10 -16 -33 -29 -34 -29 -2 0 9 6 20 13 22 6 3 -2 6 -19
6 -34 1 -50 -19 -31 -38 6 -6 8 -11 4 -11 -4 0 -3 -9 3 -19 8 -16 18 -18 62
-14 28 3 58 11 65 19 16 16 53 19 53 4 0 -8 11 -8 49 -1 2 1 -4 12 -13 26 -20
30 -20 36 -1 29 8 -4 15 -13 15 -20 0 -21 51 -38 73 -25 9 6 28 9 42 5 15 -4
25 -2 25 5 0 6 12 8 33 4 l32 -6 -24 24 c-16 15 -26 19 -29 11 -2 -7 -11 -12
-19 -12 -9 0 -14 3 -10 6 9 9 -26 44 -44 44 -9 0 -20 -7 -23 -16z m-92 -40 c8
-3 12 -12 9 -20 -4 -11 -9 -12 -19 -3 -8 6 -14 15 -14 20 0 11 3 11 24 3z"/>
<path d="M648 183 c16 -6 16 -27 0 -20 -44 16 -60 18 -54 8 4 -6 3 -11 -3 -11
-5 0 -13 5 -17 11 -4 8 -12 3 -21 -12 l-14 -24 7 24 c5 20 3 23 -11 18 -9 -4
-21 -7 -26 -7 -6 0 -7 -4 -4 -10 9 -14 -9 -12 -24 3 -10 10 -15 8 -26 -7 -13
-16 -12 -22 8 -47 16 -20 28 -26 42 -22 20 7 39 9 108 11 28 2 36 5 31 15 -5
8 -3 8 9 -2 14 -11 18 -11 22 1 12 29 -6 79 -28 77 -9 0 -9 -2 1 -6z m-165
-52 c3 -12 0 -18 -7 -15 -6 2 -12 14 -13 24 -2 25 13 18 20 -9z m117 -11 c0
-5 -5 -10 -11 -10 -5 0 -7 5 -4 10 3 6 8 10 11 10 2 0 4 -4 4 -10z"/>
<path d="M318 148 c-39 -10 -51 -34 -23 -44 8 -4 12 -10 9 -16 -3 -5 -14 -3
-24 7 -16 15 -18 15 -24 0 -9 -24 -8 -25 11 -18 11 5 14 3 8 -6 -6 -10 -3 -11
11 -3 11 5 29 8 42 6 20 -4 21 -2 12 16 -7 12 -7 20 -1 20 5 0 13 -9 16 -20
10 -30 59 -27 73 5 8 18 8 25 1 25 -6 0 -9 9 -6 20 6 22 -8 28 -17 8 -5 -10
-7 -10 -12 0 -7 14 -24 14 -76 0z m76 -59 c-7 -11 -44 33 -44 53 0 7 12 0 25
-15 14 -16 23 -33 19 -38z m-74 36 c-7 -9 -15 -13 -17 -11 -7 7 7 26 19 26 6
0 6 -6 -2 -15z"/>
<path d="M200 115 c0 -26 14 -33 26 -13 4 6 2 14 -4 16 -7 2 -10 8 -6 13 3 5
0 9 -5 9 -6 0 -11 -11 -11 -25z"/>
<path d="M848 133 c7 -3 16 -2 19 1 4 3 -2 6 -13 5 -11 0 -14 -3 -6 -6z"/>
</g>
</svg>
